<svg width="24" height="24" viewBox="0 0 24 24" fill="none" xmlns="http://www.w3.org/2000/svg">
<path d="M21.9455 2.76454C21.5062 2.40022 20.9023 2.30647 20.3732 2.52039L2.45623 9.75379C1.66808 10.0782 1.29216 10.9801 1.61656 11.7682C1.78435 12.1758 2.11833 12.4921 2.53435 12.6376L6.39958 13.9813L8.49431 20.9071C8.49852 20.9212 8.51146 20.9298 8.51689 20.9434C8.53856 20.9986 8.57024 21.0494 8.61022 21.0933C8.62511 21.1109 8.64135 21.1275 8.65868 21.1427C8.71086 21.186 8.77147 21.2181 8.83666 21.2368C8.84661 21.2397 8.85326 21.2485 8.86339 21.2509L8.86925 21.2506L8.87218 21.2518C8.90557 21.2593 8.93962 21.2629 8.97374 21.2626C9.01836 21.261 9.06261 21.2533 9.10509 21.2397C9.11333 21.2374 9.12163 21.238 9.12969 21.2354C9.20226 21.2098 9.26781 21.1677 9.32122 21.1124C9.32744 21.1062 9.3369 21.1051 9.34288 21.0985L12.3566 17.7733L16.753 21.1776C17.0202 21.3865 17.3495 21.4999 17.6886 21.4999C18.422 21.4998 19.055 20.986 19.2062 20.2684L22.4689 4.25086C22.582 3.69679 22.3807 3.1255 21.9455 2.76454ZM9.58806 15.2948L9.00012 20.9999L7.40599 13.8538L17.3664 8.10466L9.7238 15.0419C9.65471 15.111 9.60753 15.199 9.58806 15.2948ZM18.2267 20.0673C18.1884 20.2514 18.0571 20.4023 17.8801 20.4657C17.7071 20.5322 17.5118 20.5026 17.3664 20.3876L12.6027 16.6991C12.3965 16.5394 12.1021 16.5654 11.9269 16.7587L9.83129 19.0709L10.5373 15.6434L17.7258 8.45399C17.9211 8.25898 17.9214 7.94257 17.7264 7.74726C17.5722 7.59266 17.3354 7.55616 17.1418 7.65711L6.77843 13.0538L2.8615 11.6923C2.648 11.622 2.5028 11.4238 2.50017 11.1991C2.48986 10.9728 2.62383 10.7647 2.83416 10.6806L20.7482 3.44813C20.9354 3.36872 21.1513 3.40199 21.3058 3.53407C21.4596 3.65821 21.5303 3.85847 21.4885 4.05164L18.2267 20.0673Z" stroke="#121014"/>
</svg>
