<svg width="48" height="48" viewBox="0 0 48 48" fill="none" xmlns="http://www.w3.org/2000/svg">
<mask id="mask0_1338_3076" style="mask-type:alpha" maskUnits="userSpaceOnUse" x="2" y="6" width="38" height="31">
<path d="M39.0699 6.42017H2.23267V36.2791H20.3618C18.4577 33.9744 17.3136 31.0186 17.3136 27.7954C17.3136 20.4343 23.2809 14.467 30.642 14.467C33.8391 14.467 36.7734 15.5927 39.0699 17.4694V6.42017Z" fill="#D9D9D9"/>
</mask>
<g mask="url(#mask0_1338_3076)">
<path d="M33.1535 9.04199H12.9488C11.2226 9.04199 9.82324 10.4414 9.82324 12.1676C9.82324 13.8938 11.2226 15.2932 12.9488 15.2932H33.1535C34.8797 15.2932 36.2791 13.8938 36.2791 12.1676C36.2791 10.4414 34.8797 9.04199 33.1535 9.04199Z" stroke="#121014" stroke-width="1.5" stroke-linejoin="round"/>
<path d="M27.1256 15.2932H6.92099C5.19478 15.2932 3.79541 16.6926 3.79541 18.4188C3.79541 20.145 5.19478 21.5444 6.92099 21.5444H27.1256C28.8519 21.5444 30.2512 20.145 30.2512 18.4188C30.2512 16.6926 28.8519 15.2932 27.1256 15.2932Z" stroke="#121014" stroke-width="1.5" stroke-linejoin="round"/>
<path d="M33.0419 21.5444H12.8373C11.111 21.5444 9.71167 22.9438 9.71167 24.67C9.71167 26.3962 11.111 27.7956 12.8373 27.7956H33.0419C34.7681 27.7956 36.1675 26.3962 36.1675 24.67C36.1675 22.9438 34.7681 21.5444 33.0419 21.5444Z" stroke="#121014" stroke-width="1.5" stroke-linejoin="round"/>
<path d="M30.2511 27.7954H10.0465C8.32027 27.7954 6.9209 29.1948 6.9209 30.921C6.9209 32.6472 8.32027 34.0466 10.0465 34.0466H30.2511C31.9773 34.0466 33.3767 32.6472 33.3767 30.921C33.3767 29.1948 31.9773 27.7954 30.2511 27.7954Z" stroke="#121014" stroke-width="1.5" stroke-linejoin="round"/>
</g>
<path d="M30.6418 41.1238C38.0029 41.1238 43.9702 35.1565 43.9702 27.7954C43.9702 20.4343 38.0029 14.467 30.6418 14.467C23.2808 14.467 17.3135 20.4343 17.3135 27.7954C17.3135 35.1565 23.2808 41.1238 30.6418 41.1238Z" stroke="#121014" stroke-width="1.5" stroke-miterlimit="10" stroke-linecap="round" stroke-linejoin="round"/>
<path d="M30.6417 37.1944C35.8327 37.1944 40.0408 32.9862 40.0408 27.7953C40.0408 22.6044 35.8327 18.3962 30.6417 18.3962C25.4508 18.3962 21.2427 22.6044 21.2427 27.7953C21.2427 32.9862 25.4508 37.1944 30.6417 37.1944Z" stroke="#0C8FAE" stroke-width="1.5" stroke-miterlimit="10" stroke-linecap="round" stroke-linejoin="round"/>
</svg>
