<svg width="48" height="48" viewBox="0 0 48 48" fill="none" xmlns="http://www.w3.org/2000/svg">
<path d="M11.6317 24.0446C11.2075 22.7386 10.9619 21.3544 10.9619 19.9144C10.9619 12.4241 17.2689 6.41856 24.8707 6.90972C31.3117 7.32274 36.547 12.5246 37.0047 18.9544C37.1275 20.6288 36.9154 22.2474 36.4689 23.7544C34.3703 30.7758 24 41.1237 24 41.1237C24 41.1237 14.2438 32.1265 11.6317 24.0446Z" stroke="#121014" stroke-width="1.5" stroke-miterlimit="14" stroke-linecap="round" stroke-linejoin="round"/>
<path d="M30.1394 19.9144C30.1394 23.3079 27.3934 26.054 23.9999 26.054C20.6064 26.054 17.8604 23.3079 17.8604 19.9144C17.8604 16.5209 20.6064 13.7749 23.9999 13.7749C27.3934 13.7749 30.1394 16.5209 30.1394 19.9144Z" stroke="#0C8FAE" stroke-width="1.5" stroke-miterlimit="14" stroke-linecap="round" stroke-linejoin="round"/>
</svg>
