<svg width="48" height="48" viewBox="0 0 48 48" fill="none" xmlns="http://www.w3.org/2000/svg">
<path d="M30.8288 15.4775V15.823V19.1971C30.8288 22.9513 27.7887 25.9913 24.0346 25.9913H23.8733C20.1193 25.9913 17.0791 22.9513 17.0791 19.1971V15.8691" stroke="#121014" stroke-width="1.5" stroke-miterlimit="10" stroke-linecap="round" stroke-linejoin="round"/>
<path d="M27.5238 27.1773H28.7905C33.6156 27.1773 37.5194 31.081 37.5194 35.906V39.4068C37.5194 40.3395 36.7593 41.1111 35.8151 41.1111H33.4083H33.4314H33.4198C29.159 41.4451 28.8711 42.9766 26.7868 42.9766C26.7753 42.9766 26.7638 42.9766 26.7522 42.9766H20.9715C18.8871 42.9766 18.6108 41.4451 14.3384 41.1111H12.185C11.2407 41.1111 10.4807 40.351 10.4807 39.4068V35.906C10.4807 31.081 14.3845 27.1773 19.2095 27.1773H20.2114V24.9316V27.1197C20.2114 29.0543 21.789 30.6319 23.7236 30.6319H24C25.9347 30.6319 27.5123 29.0543 27.5123 27.1197V25.0353L27.5238 27.1773Z" stroke="#121014" stroke-width="1.5" stroke-miterlimit="10" stroke-linecap="round" stroke-linejoin="round"/>
<path d="M30.8288 15.8229C30.8288 15.8229 31.1166 11.4239 26.614 9.07473C26.614 9.07473 25.2437 14.1761 16.6415 15.9611C16.6415 15.9611 13.6935 7.28981 17.3786 5.18246C17.7931 4.95215 18.4726 4.97517 18.864 5.22853C19.4283 5.58551 19.9926 6.17281 20.3381 6.47221C20.603 6.70252 20.9484 6.82919 21.3053 6.80616C21.789 6.78313 22.4685 6.64494 23.1364 6.28796C26.0626 5.08386 31.4929 5.18246 31.6003 9.76568C31.6694 12.7137 31.8767 15.155 30.8288 15.8229Z" stroke="#0C8FAE" stroke-width="1.5" stroke-miterlimit="10" stroke-linecap="round" stroke-linejoin="round"/>
<path d="M27.6274 36.5051C27.6274 35.3766 27.7425 34.4668 27.8807 34.4668H27.9037C27.9613 34.4668 28.1686 34.6165 28.5717 35.0311C29.2972 34.3286 30.0111 34.3286 30.7366 35.0311C31.1397 34.6165 31.347 34.4668 31.4045 34.4668H31.4276C31.5658 34.4668 31.6809 35.3766 31.6809 36.5051V36.3784V36.6318C31.6809 37.6221 30.8748 38.4282 29.8844 38.4282H29.4239C28.4335 38.4282 27.6274 37.6221 27.6274 36.6318V36.3784" stroke="#0C8FAE" stroke-width="1.5" stroke-miterlimit="10" stroke-linecap="round" stroke-linejoin="round"/>
</svg>
